<!DOCTYPE svg PUBLIC "-//W3C//DTD SVG 20010904//EN" "http://www.w3.org/TR/2001/REC-SVG-20010904/DTD/svg10.dtd"[]><svg version="1.0" xmlns="http://www.w3.org/2000/svg" width="12" height="16" viewBox="0 0 500.000000 500.000000" preserveAspectRatio="xMidYMid meet"><g transform="translate(0.000000,500.000000) scale(0.100000,-0.100000)" fill="#000000" stroke="none"><path d="M3150 2500 l0 -1170 260 0 260 0 0 1170 0 1170 -260 0 -260 0 0 -1170z" /><path d="M2540 2195 l0 -865 260 0 260 0 0 865 0 865 -260 0 -260 0 0 -865z" /><path d="M1940 1895 l0 -565 260 0 260 0 0 565 0 565 -260 0 -260 0 0 -565z" /><path d="M1340 1595 l0 -265 260 0 260 0 0 265 0 265 -260 0 -260 0 0 -265z" /></g></svg>