<?xml version="1.0" standalone="no"?>
<!DOCTYPE svg PUBLIC "-//W3C//DTD SVG 20010904//EN"
 "http://www.w3.org/TR/2001/REC-SVG-20010904/DTD/svg10.dtd">
<svg version="1.0" xmlns="http://www.w3.org/2000/svg"
 width="12.000000pt" height="12.000000pt" viewBox="0 0 12.000000 12.000000"
 preserveAspectRatio="xMidYMid meet">
<metadata>
Created by potrace 1.16, written by Peter Selinger 2001-2019
</metadata>
<g transform="translate(0.000000,12.000000) scale(0.002400,-0.002400)"
fill="#000000" stroke="none">
<path d="M1365 3876 c-16 -7 -75 -60 -131 -117 -108 -112 -123 -140 -104 -208
14 -52 2367 -2406 2420 -2421 70 -20 96 -6 216 114 120 120 133 145 114 215
-8 29 -227 253 -1197 1223 -674 673 -1200 1192 -1216 1198 -37 13 -65 12 -102
-4z"/>
<path d="M3530 3869 c-30 -12 -765 -743 -786 -781 -8 -15 -14 -45 -14 -68 0
-23 6 -53 14 -68 22 -42 757 -770 789 -782 39 -14 83 -13 115 4 41 22 219 207
232 241 6 16 8 47 4 70 -6 36 -31 65 -252 288 l-246 247 242 243 c200 200 245
250 252 280 15 70 -1 102 -107 210 -122 123 -168 145 -243 116z"/>
<path d="M1365 2838 c-11 -6 -66 -56 -123 -112 -76 -75 -105 -111 -113 -138
-22 -84 -43 -59 683 -784 727 -725 695 -698 778 -674 37 11 220 183 246 232
17 32 18 76 3 115 -14 38 -1315 1341 -1356 1359 -38 17 -90 18 -118 2z"/>
<path d="M1380 1828 c-25 -7 -66 -40 -143 -116 -178 -177 -177 -190 60 -423
180 -178 198 -189 272 -169 27 7 66 39 149 123 115 117 118 123 112 197 -4 45
-26 73 -182 227 -105 104 -162 153 -183 158 -16 4 -34 8 -40 9 -5 2 -26 -1
-45 -6z"/>
</g>
</svg>
